<?xml version="1.0" encoding="utf-8"?>
<!-- Generator: Adobe Illustrator 22.0.0, SVG Export Plug-In . SVG Version: 6.00 Build 0)  -->
<svg version="1.1" xmlns="http://www.w3.org/2000/svg" xmlns:xlink="http://www.w3.org/1999/xlink" x="0px" y="0px"
	 viewBox="0 0 2686.7 3653.4" style="enable-background:new 0 0 2686.7 3653.4;" xml:space="preserve">
<style type="text/css">
	.st0{fill:#B4E4EF;}
	.st1{font-family:'Verdana-Bold';}
	.st2{font-size:30px;}
	.st3{font-family:'Verdana';}
</style>
<g id="Capa_1">
	<g>
		<path class="st0" d="M692.4,733.2L692.4,733.2l-288.5,0.4l0,0c-0.3,0-0.5,0-0.8,0c-61.3,0.1-111,42.3-110.9,94.2
			s49.8,93.9,111.2,93.9c0.3,0,0.5,0,0.8,0l0,0l288.5-0.4v0c61-0.4,110.2-42.5,110.1-94.2C802.7,775.4,753.3,733.5,692.4,733.2z
			 M756.4,827.7c0,30.7-29.3,55.7-65.6,55.7l-287.7,0.4c-36.3,0.1-65.7-24.8-65.8-55.5v0c0-30.7,29.3-55.7,65.6-55.7l287.7-0.4
			C726.9,772.1,756.4,797,756.4,827.7L756.4,827.7z"/>
	</g>
	<g>
		<path class="st0" d="M923.8,465.3L923.8,465.3l-177.4,0v0c-0.2,0-0.3,0-0.5,0c-37.7,0-68.3,25.9-68.3,57.8s30.6,57.8,68.3,57.8
			c0.2,0,0.3,0,0.5,0v0h177.4v0c37.5-0.2,67.8-26,67.8-57.8C991.6,491.3,961.3,465.5,923.8,465.3z M963.1,523.5
			c0,18.9-18.1,34.2-40.4,34.2h-177c-22.3,0-40.4-15.3-40.4-34.2v0c0-18.9,18.1-34.2,40.4-34.2h177
			C945,489.3,963.1,504.6,963.1,523.5L963.1,523.5z"/>
	</g>
	<path class="st0" d="M1048.3,1070.3h-740c-9.7,0-17.5-7.8-17.5-17.5l0,0c0-9.7,7.8-17.5,17.5-17.5h740c9.7,0,17.5,7.8,17.5,17.5
		l0,0C1065.8,1062.5,1057.9,1070.3,1048.3,1070.3z"/>
	<path class="st0" d="M2327.3,411.3h-1179c-9.7,0-17.5-7.8-17.5-17.5v0c0-9.7,7.8-17.5,17.5-17.5h1179c9.7,0,17.5,7.8,17.5,17.5v0
		C2344.8,403.5,2336.9,411.3,2327.3,411.3z"/>
	<path class="st0" d="M1048.3,1114.3h-740c-9.7,0-17.5-7.8-17.5-17.5l0,0c0-9.7,7.8-17.5,17.5-17.5h740c9.7,0,17.5,7.8,17.5,17.5
		l0,0C1065.8,1106.5,1057.9,1114.3,1048.3,1114.3z"/>
	<path class="st0" d="M1507.3,3653.3h-740c-9.7,0-17.5-7.8-17.5-17.5l0,0c0-9.7,7.8-17.5,17.5-17.5h740c9.7,0,17.5,7.8,17.5,17.5
		l0,0C1524.8,3645.5,1516.9,3653.3,1507.3,3653.3z"/>
	<path class="st0" d="M2322.3,3653.3h-740c-9.7,0-17.5-7.8-17.5-17.5l0,0c0-9.7,7.8-17.5,17.5-17.5h740c9.7,0,17.5,7.8,17.5,17.5
		l0,0C2339.8,3645.5,2331.9,3653.3,2322.3,3653.3z"/>
	<path class="st0" d="M2274.8,1105.3h-705c-19.3,0-35-15.7-35-35v0c0-19.3,15.7-35,35-35h705c19.3,0,35,15.7,35,35v0
		C2309.8,1089.6,2294.1,1105.3,2274.8,1105.3z"/>
	<path class="st0" d="M1030.8,1415.3h-705c-19.3,0-35-15.7-35-35v0c0-19.3,15.7-35,35-35h705c19.3,0,35,15.7,35,35v0
		C1065.8,1399.6,1050.1,1415.3,1030.8,1415.3z"/>
	<path class="st0" d="M1030.8,1570.3h-705c-19.3,0-35-15.7-35-35v0c0-19.3,15.7-35,35-35h705c19.3,0,35,15.7,35,35v0
		C1065.8,1554.6,1050.1,1570.3,1030.8,1570.3z"/>
	<path class="st0" d="M1030.8,1725.3h-705c-19.3,0-35-15.7-35-35v0c0-19.3,15.7-35,35-35h705c19.3,0,35,15.7,35,35v0
		C1065.8,1709.6,1050.1,1725.3,1030.8,1725.3z"/>
	<path class="st0" d="M1030.8,1880.3h-705c-19.3,0-35-15.7-35-35v0c0-19.3,15.7-35,35-35h705c19.3,0,35,15.7,35,35v0
		C1065.8,1864.6,1050.1,1880.3,1030.8,1880.3z"/>
	<path class="st0" d="M1030.8,2035.3h-705c-19.3,0-35-15.7-35-35v0c0-19.3,15.7-35,35-35h705c19.3,0,35,15.7,35,35v0
		C1065.8,2019.6,1050.1,2035.3,1030.8,2035.3z"/>
	<path class="st0" d="M2279.3,1725.3h-705c-19.3,0-35-15.7-35-35v0c0-19.3,15.7-35,35-35h705c19.3,0,35,15.7,35,35v0
		C2314.3,1709.6,2298.7,1725.3,2279.3,1725.3z"/>
	<path class="st0" d="M2614.8,2736.9V954.2c0-19.3,15.7-35,35-35h2c19.3,0,35,15.7,35,35v1782.6c0,19.3-15.7,35-35,35h-2
		C2630.4,2771.9,2614.8,2756.2,2614.8,2736.9z"/>
	<path class="st0" d="M1418.9,929h-191.3c-43,0-77.8-34.9-77.8-77.8v0c0-43,34.9-77.8,77.8-77.8h191.3c43,0,77.8,34.9,77.8,77.8v0
		C1496.8,894.1,1461.9,929,1418.9,929z"/>
	<path class="st0" d="M2240.9,930.3h-191.3c-43,0-77.8-34.9-77.8-77.8v0c0-43,34.9-77.8,77.8-77.8h191.3c43,0,77.8,34.9,77.8,77.8v0
		C2318.8,895.5,2283.9,930.3,2240.9,930.3z"/>
	<path class="st0" d="M1834.6,0l259.3,0c43,0,77.8,34.9,77.8,77.8v0c0,43-34.9,77.8-77.8,77.8h-259.3c-43,0-77.8-34.9-77.8-77.8v0
		C1756.8,34.8,1791.6,0,1834.6,0z"/>
	<path class="st0" d="M2249.6,0l259.3,0c43,0,77.8,34.9,77.8,77.8v0c0,43-34.9,77.8-77.8,77.8h-259.3c-43,0-77.8-34.9-77.8-77.8v0
		C2171.8,34.8,2206.6,0,2249.6,0z"/>
	<path class="st0" d="M740.3,0l765.7,0c43,0,77.8,34.9,77.8,77.8v0c0,43-34.9,77.8-77.8,77.8H740.3c-43,0-77.8-34.9-77.8-77.8v0
		C662.4,34.8,697.3,0,740.3,0z"/>
	<path class="st0" d="M1418.9,655h-191.3c-43,0-77.8-34.9-77.8-77.8v0c0-43,34.9-77.8,77.8-77.8h191.3c43,0,77.8,34.9,77.8,77.8v0
		C1496.8,620.1,1461.9,655,1418.9,655z"/>
	<path class="st0" d="M1829.9,929h-191.3c-43,0-77.8-34.9-77.8-77.8v0c0-43,34.9-77.8,77.8-77.8h191.3c43,0,77.8,34.9,77.8,77.8v0
		C1907.8,894.1,1872.9,929,1829.9,929z"/>
	<path class="st0" d="M1829.9,655h-191.3c-43,0-77.8-34.9-77.8-77.8v0c0-43,34.9-77.8,77.8-77.8h191.3c43,0,77.8,34.9,77.8,77.8v0
		C1907.8,620.1,1872.9,655,1829.9,655z"/>
	<path class="st0" d="M2240.9,656.3h-191.3c-43,0-77.8-34.9-77.8-77.8v0c0-43,34.9-77.8,77.8-77.8h191.3c43,0,77.8,34.9,77.8,77.8v0
		C2318.8,621.5,2283.9,656.3,2240.9,656.3z"/>
	<path class="st0" d="M2274.8,1880.3h-705c-19.3,0-35-15.7-35-35v0c0-19.3,15.7-35,35-35h705c19.3,0,35,15.7,35,35v0
		C2309.8,1864.6,2294.1,1880.3,2274.8,1880.3z"/>
	<path class="st0" d="M2274.8,2035.3h-705c-19.3,0-35-15.7-35-35v0c0-19.3,15.7-35,35-35h705c19.3,0,35,15.7,35,35v0
		C2309.8,2019.6,2294.1,2035.3,2274.8,2035.3z"/>
	<path class="st0" d="M2274.8,2191.3h-705c-19.3,0-35-15.7-35-35v0c0-19.3,15.7-35,35-35h705c19.3,0,35,15.7,35,35v0
		C2309.8,2175.6,2294.1,2191.3,2274.8,2191.3z"/>
	<path class="st0" d="M2274.8,2347.3h-705c-19.3,0-35-15.7-35-35v0c0-19.3,15.7-35,35-35h705c19.3,0,35,15.7,35,35v0
		C2309.8,2331.6,2294.1,2347.3,2274.8,2347.3z"/>
	<path class="st0" d="M1030.8,2658.3h-705c-19.3,0-35-15.7-35-35v0c0-19.3,15.7-35,35-35h705c19.3,0,35,15.7,35,35v0
		C1065.8,2642.6,1050.1,2658.3,1030.8,2658.3z"/>
	<path class="st0" d="M547.8,2191.3h-220c-19.3,0-35-15.7-35-35v0c0-19.3,15.7-35,35-35h220c19.3,0,35,15.7,35,35v0
		C582.8,2175.6,567.1,2191.3,547.8,2191.3z"/>
	<path class="st0" d="M547.8,2347.3h-220c-19.3,0-35-15.7-35-35v0c0-19.3,15.7-35,35-35h220c19.3,0,35,15.7,35,35v0
		C582.8,2331.6,567.1,2347.3,547.8,2347.3z"/>
	<path class="st0" d="M1030.8,2191.3h-220c-19.3,0-35-15.7-35-35v0c0-19.3,15.7-35,35-35h220c19.3,0,35,15.7,35,35v0
		C1065.8,2175.6,1050.1,2191.3,1030.8,2191.3z"/>
	<path class="st0" d="M1579.6,1465.3v-240c0-19.3,15.7-35,35-35l0,0c19.3,0,35,15.7,35,35v240c0,19.3-15.7,35-35,35l0,0
		C1595.3,1500.3,1579.6,1484.6,1579.6,1465.3z"/>
	<path class="st0" d="M1734.1,1465.3v-240c0-19.3,15.7-35,35-35l0,0c19.3,0,35,15.7,35,35v240c0,19.3-15.7,35-35,35l0,0
		C1749.8,1500.3,1734.1,1484.6,1734.1,1465.3z"/>
	<path class="st0" d="M1887.3,1465.3v-240c0-19.3,15.7-35,35-35l0,0c19.3,0,35,15.7,35,35v240c0,19.3-15.7,35-35,35l0,0
		C1902.9,1500.3,1887.3,1484.6,1887.3,1465.3z"/>
	<path class="st0" d="M2041.3,1465.3v-240c0-19.3,15.7-35,35-35h0c19.3,0,35,15.7,35,35v240c0,19.3-15.7,35-35,35h0
		C2056.9,1500.3,2041.3,1484.6,2041.3,1465.3z"/>
	<path class="st0" d="M2195.3,1465.3v-240c0-19.3,15.7-35,35-35h0c19.3,0,35,15.7,35,35v240c0,19.3-15.7,35-35,35h0
		C2210.9,1500.3,2195.3,1484.6,2195.3,1465.3z"/>
	<path class="st0" d="M1030.8,2347.3h-220c-19.3,0-35-15.7-35-35v0c0-19.3,15.7-35,35-35h220c19.3,0,35,15.7,35,35v0
		C1065.8,2331.6,1050.1,2347.3,1030.8,2347.3z"/>
	<path class="st0" d="M547.8,2503.3h-220c-19.3,0-35-15.7-35-35v0c0-19.3,15.7-35,35-35h220c19.3,0,35,15.7,35,35v0
		C582.8,2487.6,567.1,2503.3,547.8,2503.3z"/>
	<path class="st0" d="M1030.8,2503.3h-220c-19.3,0-35-15.7-35-35v0c0-19.3,15.7-35,35-35h220c19.3,0,35,15.7,35,35v0
		C1065.8,2487.6,1050.1,2503.3,1030.8,2503.3z"/>
	<path class="st0" d="M732.8,3459.3v-265c0-19.3,15.7-35,35-35h0c19.3,0,35,15.7,35,35v265c0,19.3-15.7,35-35,35h0
		C748.4,3494.3,732.8,3478.6,732.8,3459.3z"/>
	<path class="st0" d="M884.8,3459.3v-265c0-19.3,15.7-35,35-35h0c19.3,0,35,15.7,35,35v265c0,19.3-15.7,35-35,35h0
		C900.4,3494.3,884.8,3478.6,884.8,3459.3z"/>
	<path class="st0" d="M1036.8,3459.3v-265c0-19.3,15.7-35,35-35l0,0c19.3,0,35,15.7,35,35v265c0,19.3-15.7,35-35,35l0,0
		C1052.4,3494.3,1036.8,3478.6,1036.8,3459.3z"/>
	<path class="st0" d="M1188.8,3459.3v-265c0-19.3,15.7-35,35-35l0,0c19.3,0,35,15.7,35,35v265c0,19.3-15.7,35-35,35l0,0
		C1204.4,3494.3,1188.8,3478.6,1188.8,3459.3z"/>
	<path class="st0" d="M1340.8,3459.3v-265c0-19.3,15.7-35,35-35l0,0c19.3,0,35,15.7,35,35v265c0,19.3-15.7,35-35,35l0,0
		C1356.4,3494.3,1340.8,3478.6,1340.8,3459.3z"/>
	<path class="st0" d="M1492.8,3459.3v-265c0-19.3,15.7-35,35-35l0,0c19.3,0,35,15.7,35,35v265c0,19.3-15.7,35-35,35l0,0
		C1508.4,3494.3,1492.8,3478.6,1492.8,3459.3z"/>
	<path class="st0" d="M1644.8,3459.3v-265c0-19.3,15.7-35,35-35l0,0c19.3,0,35,15.7,35,35v265c0,19.3-15.7,35-35,35l0,0
		C1660.4,3494.3,1644.8,3478.6,1644.8,3459.3z"/>
	<path class="st0" d="M1796.8,3459.3v-265c0-19.3,15.7-35,35-35l0,0c19.3,0,35,15.7,35,35v265c0,19.3-15.7,35-35,35l0,0
		C1812.4,3494.3,1796.8,3478.6,1796.8,3459.3z"/>
	<path class="st0" d="M1948.8,3459.3v-265c0-19.3,15.7-35,35-35l0,0c19.3,0,35,15.7,35,35v265c0,19.3-15.7,35-35,35l0,0
		C1964.4,3494.3,1948.8,3478.6,1948.8,3459.3z"/>
	<path class="st0" d="M2100.8,3459.3v-265c0-19.3,15.7-35,35-35l0,0c19.3,0,35,15.7,35,35v265c0,19.3-15.7,35-35,35l0,0
		C2116.4,3494.3,2100.8,3478.6,2100.8,3459.3z"/>
	<path class="st0" d="M2252.8,3459.3v-265c0-19.3,15.7-35,35-35l0,0c19.3,0,35,15.7,35,35v265c0,19.3-15.7,35-35,35l0,0
		C2268.4,3494.3,2252.8,3478.6,2252.8,3459.3z"/>
	<path class="st0" d="M2615.8,3524.3v-452c0-19.3,15.7-35,35-35l0,0c19.3,0,35,15.7,35,35v452c0,19.3-15.7,35-35,35l0,0
		C2631.4,3559.3,2615.8,3543.6,2615.8,3524.3z"/>
	<path class="st0" d="M592.8,2813.3h-265c-19.3,0-35-15.7-35-35v0c0-19.3,15.7-35,35-35h265c19.3,0,35,15.7,35,35v0
		C627.8,2797.6,612.1,2813.3,592.8,2813.3z"/>
	<path class="st0" d="M592.8,2969.3h-265c-19.3,0-35-15.7-35-35v0c0-19.3,15.7-35,35-35h265c19.3,0,35,15.7,35,35v0
		C627.8,2953.6,612.1,2969.3,592.8,2969.3z"/>
	<path class="st0" d="M1027.8,2813.3h-265c-19.3,0-35-15.7-35-35v0c0-19.3,15.7-35,35-35h265c19.3,0,35,15.7,35,35v0
		C1062.8,2797.6,1047.1,2813.3,1027.8,2813.3z"/>
	<g>
		<path class="st0" d="M1839.8,2538.3h-265c-19.3,0-35-15.7-35-35v0c0-19.3,15.7-35,35-35h265c19.3,0,35,15.7,35,35v0
			C1874.8,2522.6,1859.1,2538.3,1839.8,2538.3z"/>
		<path class="st0" d="M2274.8,2538.3h-265c-19.3,0-35-15.7-35-35v0c0-19.3,15.7-35,35-35h265c19.3,0,35,15.7,35,35v0
			C2309.8,2522.6,2294.1,2538.3,2274.8,2538.3z"/>
	</g>
	<g>
		<path class="st0" d="M1839.8,2682.3h-265c-19.3,0-35-15.7-35-35v0c0-19.3,15.7-35,35-35h265c19.3,0,35,15.7,35,35v0
			C1874.8,2666.6,1859.1,2682.3,1839.8,2682.3z"/>
		<path class="st0" d="M2274.8,2682.3h-265c-19.3,0-35-15.7-35-35v0c0-19.3,15.7-35,35-35h265c19.3,0,35,15.7,35,35v0
			C2309.8,2666.6,2294.1,2682.3,2274.8,2682.3z"/>
	</g>
	<g>
		<path class="st0" d="M1839.8,3019.3h-265c-19.3,0-35-15.7-35-35v0c0-19.3,15.7-35,35-35h265c19.3,0,35,15.7,35,35v0
			C1874.8,3003.6,1859.1,3019.3,1839.8,3019.3z"/>
		<path class="st0" d="M2274.8,3019.3h-265c-19.3,0-35-15.7-35-35v0c0-19.3,15.7-35,35-35h265c19.3,0,35,15.7,35,35v0
			C2309.8,3003.6,2294.1,3019.3,2274.8,3019.3z"/>
	</g>
	<path class="st0" d="M1027.8,2969.3h-265c-19.3,0-35-15.7-35-35v0c0-19.3,15.7-35,35-35h265c19.3,0,35,15.7,35,35v0
		C1062.8,2953.6,1047.1,2969.3,1027.8,2969.3z"/>
	<rect x="296.8" y="626.2" class="st0" width="126" height="58.2"/>
	<rect x="462.8" y="626.2" class="st0" width="126" height="58.2"/>
	<rect x="296.8" y="473.2" class="st0" width="126" height="58.2"/>
	<rect x="462.8" y="473.2" class="st0" width="126" height="58.2"/>
	<g>
		<polygon class="st0" points="2678.1,128.6 2678.1,0 2549.5,0 		"/>
		<path class="st0" d="M2522.4,851.5c0,43,34.9,77.8,77.8,77.8l0,0c43,0,77.8-34.9,77.8-77.8V348.7l-155.7-155.7V851.5z"/>
		<polygon class="st0" points="2329.3,0 2522.4,193.1 2522.4,0 		"/>
		<polygon class="st0" points="2549.5,0 2522.4,0 2522.4,193.1 2678.1,348.7 2678.1,128.6 		"/>
	</g>
	<rect x="464.8" y="3159.3" class="st0" width="99" height="357"/>
	<rect x="1543.8" y="2794.3" class="st0" width="142" height="99"/>
	<rect x="1732.8" y="2794.3" class="st0" width="142" height="99"/>
	<rect x="1945.8" y="2794.3" class="st0" width="142" height="99"/>
	<rect x="2134.8" y="2794.3" class="st0" width="142" height="99"/>
	<rect x="251.8" y="3159.3" class="st0" width="99" height="357"/>
	<rect x="38.8" y="3159.3" class="st0" width="99" height="357"/>
	<text transform="matrix(1 0 0 1 383.2867 835.8492)" class="st1 st2">Quesos y Fiambres </text>
	<text transform="matrix(1 0 0 1 251.421 3108.8037)" class="st1 st2">Cajas</text>
	<text transform="matrix(1 0 0 1 456.9154 1012.2974)" class="st1 st2">Mundo saludable / Mundo Andino</text>
	<text transform="matrix(1 0 0 1 443.8423 1306.2975)"><tspan x="0" y="0" class="st1 st2">Pasillo 15A </tspan><tspan x="197.6" y="0" class="st3 st2">Leches / Infuciones / Café</tspan></text>
	<text transform="matrix(1 0 0 1 349.2057 1461.2975)"><tspan x="0" y="0" class="st1 st2">Pasillo 14A </tspan><tspan x="197.6" y="0" class="st3 st2">Pan de molde / Cereales / Mermeladas</tspan></text>
	<text transform="matrix(1 0 0 1 391.6129 1617.2975)"><tspan x="0" y="0" class="st1 st2">Pasillo 13A </tspan><tspan x="197.6" y="0" class="st3 st2">Arroz / Condimentos / Menestras</tspan></text>
	<text transform="matrix(1 0 0 1 456.689 1771.2975)"><tspan x="0" y="0" class="st1 st2">Pasillo 12A </tspan><tspan x="197.6" y="0" class="st3 st2">Aceites / Pastas / Salsas</tspan></text>
	<text transform="matrix(1 0 0 1 411.9744 1162.3151)"><tspan x="0" y="0" class="st1 st2">Pasillo 16A </tspan><tspan x="197.6" y="0" class="st3 st2">Lacteos / Congelados /Yogurts</tspan></text>
	<text transform="matrix(1 0 0 1 398.608 1926.2975)"><tspan x="0" y="0" class="st1 st2">Pasillo 11A </tspan><tspan x="197.6" y="0" class="st3 st2">Azúcar / Conservas / Repostería</tspan></text>
	<text transform="matrix(1 0 0 1 305.3707 2081.2974)"><tspan x="0" y="0" class="st1 st2">Pasillo 10A </tspan><tspan x="197.6" y="0" class="st3 st2">Jabones / Higiene Bucal / Perfumería infantil</tspan></text>
	<text transform="matrix(1 0 0 1 1883.9995 1617.2975)" class="st1 st2">Vinos</text>
	<text transform="matrix(1 0 0 1 1798.2548 1152.2975)" class="st1 st2">Zona de Licores</text>
	<text transform="matrix(1 0 0 1 1674.2203 718.6378)" class="st1 st2">Frutas y Verduras</text>
	<text transform="matrix(1 0 0 1 1944.2203 192.6378)" class="st1 st2">Panaderia</text>
	<text transform="matrix(1 0 0 1 2310.2205 192.6378)" class="st1 st2">Pescados</text>
	<text transform="matrix(6.123234e-17 -1 1 6.123234e-17 2481.5078 410.9601)" class="st1 st2">Carne</text>
	<text transform="matrix(6.123234e-17 -1 1 6.123234e-17 2481.5078 578.96)" class="st1 st2">Pollo</text>
	<text transform="matrix(1 0 0 1 1697.459 1771.2975)"><tspan x="0" y="0" class="st1 st2">Pasillo 12B </tspan><tspan x="197.2" y="0" class="st3 st2">Aguas / Gaseosas</tspan></text>
	<text transform="matrix(1 0 0 1 1582.6299 1926.2975)"><tspan x="0" y="0" class="st1 st2">Pasillo 11B </tspan><tspan x="197.2" y="0" class="st3 st2">Chocolates / Galletas / Golosinas</tspan></text>
	<text transform="matrix(1 0 0 1 1608.2861 2081.2974)"><tspan x="0" y="0" class="st1 st2">Pasillo 10B </tspan><tspan x="197.2" y="0" class="st3 st2">Papel Higénico / Descartables</tspan></text>
	<text transform="matrix(1 0 0 1 1539.1094 2237.2974)"><tspan x="0" y="0" class="st1 st2">Pasillo 9B </tspan><tspan x="175.9" y="0" class="st3 st2">Limpiadores / Detergentes/ Suavizantes</tspan></text>
	<text transform="matrix(1 0 0 1 1364.1484 2393.2974)"><tspan x="0" y="0" class="st1 st2">Pasillo 8B </tspan><tspan x="175.9" y="0" class="st3 st2">Lavavajillas / Alimentos para mascotas / Utencilios de Limpieza</tspan></text>
	<text transform="matrix(1 0 0 1 348.898 2549.2974)"><tspan x="0" y="0" class="st1 st2">Pasillo 7A </tspan><tspan x="176.3" y="0" class="st3 st2"> Perfumería / Packs de cuidado personal</tspan></text>
	<text transform="matrix(1 0 0 1 379.3228 2873.2974)"><tspan x="0" y="0" class="st1 st2">Pasillo 5A </tspan><tspan x="176.3" y="0" class="st3 st2">Ropa bebe / Coches rodados / Tinas</tspan></text>
	<text transform="matrix(1 0 0 1 280.9224 2711.2974)"><tspan x="0" y="0" class="st1 st2">Pasillo 6A </tspan><tspan x="176.3" y="0" class="st3 st2">Pañales / Accesorios de bebes / Fórmulas lacteas</tspan></text>
	<text transform="matrix(1 0 0 1 223.7662 2237.2974)"><tspan x="0" y="0" class="st1 st2">Pasillo 9A </tspan><tspan x="176.3" y="0" class="st3 st2">Protección sanitaria / Desodorantes / Articulos de afeitar</tspan></text>
	<text transform="matrix(1 0 0 1 350.6344 2393.2974)"><tspan x="0" y="0" class="st1 st2">Pasillo 8A </tspan><tspan x="176.3" y="0" class="st3 st2">Perfumes /Cosméticos / Cuidado de piel</tspan></text>
	<text transform="matrix(6.123234e-17 -1 1 6.123234e-17 1619.1007 1446.5304)" class="st1 st2">Whisky / Ron</text>
	<text transform="matrix(6.123234e-17 -1 1 6.123234e-17 839.1006 3444.0303)" class="st1 st2">Utiles de oficina</text>
	<text transform="matrix(6.123234e-17 -1 1 6.123234e-17 1001.1006 3451.0439)" class="st1 st2">Juguetes de niño</text>
	<text transform="matrix(6.123234e-17 -1 1 6.123234e-17 1145.1007 3451.0439)" class="st1 st2">Juguetes de bebe</text>
	<text transform="matrix(6.123234e-17 -1 1 6.123234e-17 1310.1007 3451.0439)" class="st1 st2">Juguetes de niña</text>
	<text transform="matrix(6.123234e-17 -1 1 6.123234e-17 1459.1007 3512.0439)" class="st1 st2">Vajilla / Ollas / utencilios</text>
	<text transform="matrix(6.123234e-17 -1 1 6.123234e-17 1617.1007 3512.0439)" class="st1 st2">Vajilla / Ollas / utencilios</text>
	<text transform="matrix(6.123234e-17 -1 1 6.123234e-17 1763.1007 3512.0439)" class="st1 st2">Vajilla / Ollas / utencilios</text>
	<text transform="matrix(6.123234e-17 -1 1 6.123234e-17 1913.1007 3432.0439)" class="st1 st2">Ropa de cama</text>
	<text transform="matrix(6.123234e-17 -1 1 6.123234e-17 2058.1008 3482.0439)" class="st1 st2">Articulos de plastico</text>
	<text transform="matrix(6.123234e-17 -1 1 6.123234e-17 2223.1008 3482.0439)" class="st1 st2">Articulos de plastico</text>
	<text transform="matrix(6.123234e-17 -1 1 6.123234e-17 2376.1008 3482.0439)" class="st1 st2">Outdoor / Ferretería</text>
	<text transform="matrix(6.123234e-17 -1 1 6.123234e-17 2595.1008 3402.0439)" class="st1 st2">Colchones</text>
	<text transform="matrix(1 0 0 1 865.9243 3595.9397)" class="st1 st2">Cuentos / Revistas / Juegos de Mesa</text>
	<text transform="matrix(1 0 0 1 1658.9995 3595.9397)" class="st1 st2">Comoda / Cajas Organizadoras / Cestos</text>
	<text transform="matrix(6.123234e-17 -1 1 6.123234e-17 1773.6012 1555.546)" class="st1 st2">Licores / Vodka / Piscos</text>
	<text transform="matrix(6.123234e-17 -1 1 6.123234e-17 1926.7496 1454.6241)" class="st1 st2">Pisco / Vinos</text>
	<text transform="matrix(6.123234e-17 -1 1 6.123234e-17 2080.7498 1370.0968)" class="st1 st2">Vinos</text>
	<text transform="matrix(6.123234e-17 -1 1 6.123234e-17 2234.7498 1415.7687)" class="st1 st2">Cervezas</text>
	<text transform="matrix(1 0 0 1 1644.7675 2583.3149)" class="st3 st2">Ropa bebe</text>
	<text transform="matrix(1 0 0 1 1583.7675 2743.3149)" class="st3 st2">Moda Masculina</text>
	<text transform="matrix(6.123234e-17 -1 1 6.123234e-17 1501.8241 2858.8032)" class="st3 st2">Zona Moda</text>
	<text transform="matrix(1 0 0 1 2041.7675 2743.3149)" class="st3 st2">Moda Femenina</text>
	<text transform="matrix(1 0 0 1 1997.7675 2583.3149)" class="st3 st2">Accesorios para bebe</text>
	<rect x="108.8" y="64.3" class="st0" width="519" height="347"/>
	<path class="st0" d="M1056.8,789.3h-131c-15.5,0-28-12.5-28-28v0c0-15.5,12.5-28,28-28h131c15.5,0,28,12.5,28,28v0
		C1084.8,776.8,1072.2,789.3,1056.8,789.3z"/>
	<path class="st0" d="M1056.8,921.3h-131c-15.5,0-28-12.5-28-28v0c0-15.5,12.5-28,28-28h131c15.5,0,28,12.5,28,28v0
		C1084.8,908.8,1072.2,921.3,1056.8,921.3z"/>
</g>
<g id="Capa_2">
</g>
</svg>
